<?xml version="1.0" encoding="utf-8"?>
<!-- Generator: Adobe Illustrator 24.1.2, SVG Export Plug-In . SVG Version: 6.00 Build 0)  -->
<svg version="1.1" xmlns="http://www.w3.org/2000/svg" xmlns:xlink="http://www.w3.org/1999/xlink" x="0px" y="0px"
	 viewBox="0 0 725.7 217.8" style="enable-background:new 0 0 725.7 217.8;" xml:space="preserve">
<style type="text/css">
	.st0{fill:#898989;}
	.st1{fill:#E51635;}
	.st2{fill:#E51635;stroke:#FCD213;stroke-width:3;stroke-miterlimit:10;}
	.st3{fill:#FCD213;}
	.st4{fill:#898989;stroke:#000000;stroke-miterlimit:10;}
</style>
<g id="Layer_1">
	<path d="M97.3,212c0,0.4-0.2,0.8-0.4,1.1c-0.2,0.3-0.4,0.5-0.7,0.6c-0.5,0.3-1,0.6-1.5,0.8c-1,0.4-2,0.8-3,1c-2,0.6-4,0.9-6.1,1.3
		c-4.1,0.6-8.2,0.9-12.3,0.8c-4.1-0.1-8.2-0.3-12.3-0.9c-2-0.3-4.1-0.7-6.1-1.3c-1-0.3-2-0.6-3-1c-0.5-0.2-1-0.5-1.4-0.8
		c-0.2-0.2-0.5-0.4-0.7-0.6c-0.2-0.3-0.4-0.6-0.4-1.1c0-0.4,0.2-0.8,0.4-1c0.2-0.2,0.4-0.4,0.7-0.6c0.5-0.3,1-0.5,1.5-0.7
		c1-0.4,2-0.6,3-0.8c2-0.4,4-0.6,6.1-0.8c4-0.4,8.1-0.5,12.2-0.5c2,0,4.1,0,6.1,0.1c2,0.1,4.1,0.2,6.1,0.3c2,0.2,4.1,0.4,6.1,0.8
		c1,0.2,2,0.5,3,0.8c0.5,0.2,1,0.4,1.5,0.7c0.2,0.2,0.5,0.4,0.7,0.6C97,211.2,97.2,211.6,97.3,212z M96,212c0-0.1,0-0.2-0.1-0.3
		c-0.1-0.1-0.3-0.3-0.4-0.4c-0.4-0.3-0.8-0.5-1.2-0.7c-0.9-0.4-1.8-0.7-2.8-1c-1.9-0.5-3.9-0.9-5.9-1.2c-2-0.3-4-0.5-6-0.7
		c-2-0.1-4.1-0.2-6.1-0.2c-4.1,0-8.1,0.2-12.1,0.8c-2,0.3-4,0.7-5.9,1.2c-1,0.3-1.9,0.6-2.8,1c-0.4,0.2-0.9,0.4-1.2,0.7
		c-0.4,0.3-0.6,0.6-0.6,0.8c0,0.2,0.3,0.5,0.6,0.7c0.4,0.2,0.8,0.4,1.2,0.6c0.9,0.3,1.9,0.6,2.8,0.8c1.9,0.4,3.9,0.6,5.9,0.8
		c4,0.3,8,0.5,12,0.4c4-0.1,8-0.1,12-0.5c2-0.2,4-0.4,5.9-0.8c1-0.2,1.9-0.4,2.8-0.8c0.4-0.2,0.9-0.4,1.2-0.6
		c0.2-0.1,0.3-0.2,0.4-0.4C96,212.2,96,212.1,96,212z"/>
	<g>
		<g>
			<path class="st0" d="M78.4,210.8l8.5-46.9H59.9l8.5,46.9C70.3,212.4,76.5,212.4,78.4,210.8z"/>
			<path d="M73.4,213.5c-2.4,0-4.8-0.5-6-1.5l-0.4-0.3l-8.9-49.2h30.6l-8.9,49.2l-0.4,0.3C78.2,213,75.8,213.5,73.4,213.5z
				 M69.7,209.9c1.6,0.8,5.7,0.8,7.3,0l8.1-44.5H61.7L69.7,209.9z"/>
		</g>
	</g>
	<g>
		<polygon class="st1" points="6,33.1 6,33 6,6 140.8,6 140.8,33.1 117.5,43.7 117.5,33.1 86.9,33.1 86.9,123.3 104.9,164 86.9,164 
			59.9,164 41.9,164 59.9,123.3 59.9,33.1 29.3,33.1 29.3,43.7 		"/>
		<path d="M140.8,6v27.1l-23.3,10.6V33.1H86.9v90.2l18,40.7h-18h-27h-18l18-40.7V33.1H29.3v10.6L6,33.1v0V6H140.8 M146.8,0h-6H6H0v6
			v27v3.9l3.5,1.6l23.3,10.6l8.5,3.9v-9.3v-4.6h18.6V122l-17.5,39.6l-3.7,8.4h9.2h18h27h18h9.2l-3.7-8.4L92.9,122V39.1h18.6v4.6V53
			l8.5-3.9l23.3-10.6l3.5-1.6v-3.9V6V0L146.8,0z"/>
	</g>
	<desc>Created with Sketch.</desc>
	<path class="st2" d="M140.8,6"/>
	<path class="st2" d="M140.8,33.1"/>
	<g>
		<polygon class="st1" points="6,33.1 6,33 6,6 140.8,6 140.8,33.1 117.5,43.7 117.5,33.1 86.9,33.1 86.9,123.3 104.9,164 86.9,164 
			59.9,164 41.9,164 59.9,123.3 59.9,33.1 29.3,33.1 29.3,43.7 		"/>
		<path class="st3" d="M140.8,6v27.1l-23.3,10.6V33.1H86.9v90.2l18,40.7h-18h-27h-18l18-40.7V33.1H29.3v10.6L6,33.1v0V6H140.8
			 M143.8,3h-3H6H3v3v27V35l1.8,0.8L28,46.4l4.2,1.9v-4.7v-7.6h24.6v86.6l-17.8,40.1l-1.9,4.2h4.6h18h27h18h4.6l-1.9-4.2l-17.8-40.1
			V36.1h24.6v7.6v4.7l4.2-1.9L142,35.8l1.8-0.8v-1.9V6V3L143.8,3z"/>
	</g>
	<path class="st4" d="M78.6,209.9"/>
	<g>
		<path d="M123.5,89.5h41.2v7h-34v22.5h33.7v7h-33.7v28.2h33.7v7h-40.9V89.5z"/>
		<path d="M177.5,89.5h14.3c8,0,13.4,0.3,16.2,1c4.3,1,7.7,3.1,10.4,6.3c2.7,3.2,4,7.2,4,11.9c0,3.9-0.9,7.4-2.8,10.3
			c-1.8,3-4.5,5.2-7.9,6.7s-8.1,2.3-14.2,2.3l25.8,33.3h-8.9L188.7,128h-4.1v33.3h-7.2V89.5z M184.6,96.6V121l12.4,0.1
			c4.8,0,8.3-0.5,10.6-1.4c2.3-0.9,4.1-2.4,5.4-4.4s1.9-4.2,1.9-6.7c0-2.4-0.7-4.6-2-6.6c-1.3-2-3-3.4-5.1-4.2
			c-2.1-0.8-5.6-1.3-10.6-1.3H184.6z"/>
		<path d="M238.2,89.5h14.3c8,0,13.4,0.3,16.2,1c4.3,1,7.7,3.1,10.4,6.3c2.7,3.2,4,7.2,4,11.9c0,3.9-0.9,7.4-2.8,10.3
			c-1.8,3-4.5,5.2-7.9,6.7s-8.1,2.3-14.2,2.3l25.8,33.3h-8.9L249.4,128h-4.1v33.3h-7.2V89.5z M245.3,96.6V121l12.4,0.1
			c4.8,0,8.3-0.5,10.6-1.4c2.3-0.9,4.1-2.4,5.4-4.4s1.9-4.2,1.9-6.7c0-2.4-0.7-4.6-2-6.6c-1.3-2-3-3.4-5.1-4.2
			c-2.1-0.8-5.6-1.3-10.6-1.3H245.3z"/>
		<path d="M327.8,89.5l33.5,71.8h-7.8l-11.3-23.6h-30.9l-11.2,23.6h-8l33.9-71.8H327.8z M326.9,104.8l-12.3,26h24.6L326.9,104.8z"/>
		<path d="M367.6,89.5h14.3c8.2,0,13.7,0.4,16.6,1.1c4.1,1,7.5,3.1,10.1,6.2c2.6,3.1,3.9,7.1,3.9,11.8c0,4.8-1.3,8.7-3.8,11.8
			c-2.5,3.1-6,5.2-10.5,6.3c-3.3,0.8-9.3,1.2-18.3,1.2h-5.1v33.4h-7.2V89.5z M374.8,96.6v24.4l12.2,0.1c4.9,0,8.5-0.4,10.8-1.3
			c2.3-0.9,4.1-2.3,5.4-4.3c1.3-2,2-4.2,2-6.7c0-2.4-0.7-4.6-2-6.6c-1.3-2-3-3.4-5.2-4.3c-2.1-0.8-5.6-1.3-10.5-1.3H374.8z"/>
		<path d="M441.3,126.7h-7.2v34.4h7.2V126.7z M456.8,100.5c-2.2-10.5-12.6-17.3-23.1-15.1c-10.3,2.2-16.9,12.1-15.2,22.3
			c0,0.1,0,0.3,0.1,0.4c0,0.1,0.1,0.3,0.1,0.4c0,0,0,0,0,0c0,0,0,0,0,0c2.2,10.5,12.6,17.2,23.1,15S459,111.1,456.8,100.5
			C456.8,100.5,456.8,100.5,456.8,100.5C456.8,100.5,456.8,100.5,456.8,100.5 M445.2,121.1c-0.4-0.1-0.8-0.3-1-0.7
			c-0.4-0.7-0.3-1.3-0.2-2c0.1-0.6-0.3-1.1-0.3-1.7c0.1-1.1,0.1-2.4-0.2-3.5c-0.2-0.7-0.4-0.7-1-1c-0.6-0.3-0.8-0.9-1.3-1.4
			c-0.4-0.4,0.1-2.5-0.2-2.6c-0.3-0.1-0.9,0.2-1.2,0c-0.3-0.2-0.5-0.6-0.9-0.7c-0.2-0.1-1.2-0.4-1.4-0.3c-1.1,0.4-2.6-0.4-3.5-1
			c-0.6-0.4-0.9-0.9-1.4-1.4c-0.4-0.4-0.9-0.4-1.3-0.9c-0.4-0.6-0.4-1.4-0.6-2.1c-0.2-0.7-0.6-0.9-1.2-1.3c-1.2-1-1.9-2.7-3.8-2.3
			c-1,0.2-0.5,2.3-1.3,2.2c-1-0.1-2,1.7-2,1.5c-0.1-1.1,0.9-1.8,0.9-2.2c0.1-1.1-1.7-0.5-1.7-1.4c0-0.5,1.2-1,0.9-1.2
			c-0.1-0.1-1.2-0.5-1.1-0.6c0.1-0.2,1,0.1,0.7-0.4c-0.1-0.2-0.2-0.3-0.3-0.4c0.3-0.5,0.6-1,1-1.5c0.6-0.2,1.3-0.3,1.6-0.3
			c1.6,0,2.3,0.6,3.7-0.3c0.7-0.4,3.5-0.5,4.1,0.2c0.3,0.4,1-0.5,1.2-0.6c0.3-0.1,1.2,0.2,1.3-0.1c0.4-0.9-0.6-1.1,0.7-0.7
			c0.9,0.3,2-1.9,2,0.4c0,1.7-1.3,2-2,3.2c-0.7,1.2,2.1,0.9,2.4,1.8c0.8,2.6,1.6-0.6,1-1.4c-1.1-1.7,0.6-1.5,1.4-0.5
			c0.5,0.6,0.6,0,1-0.3c0.3-0.3,0.6,0.7,0.7,0.9c0.4,0.5,1.2,0.5,1.2,1.3c0,0.8-0.6,0.7-1.1,1c-0.6,0.3,0.2,0.7,0.2,0.9
			c-0.1,0.2-0.8,0.5-1,0.6c-0.5,0.5,0,1.1-0.4,1.5c-0.3,0.3-0.6,0.2-0.6,0.7c0,0.6-0.9,1-0.7,1.5c0.1,0.1,0.6,1.2,0.4,1.3
			c-0.1,0-1-0.8-1.2-0.8c-0.4-0.1-2,0.4-2,1.5c0,0.7,1.4,1.6,1.5,0.6c0.1-1.3,0.7,0.6,0.6,0.7c0.2,0.1,1.1-0.5,1,0.3
			c-0.1,0.3,0.3,1,0.7,0.7c0.2-0.1,0.7,0.1,0.8-0.1c0.1-0.2,0.2-0.4,0.4-0.5c0.4-0.4,1.1-0.3,1.6-0.3c0.3,0,3,0.8,3.1,1
			c0.3,1,2.1,0.5,2.4,0.8c1,0.8,0.6,0.4,0.3,1.7c-0.1,0.7,0.3,1.4-0.3,2c-0.3,0.3-0.7,0.3-0.9,0.6c-0.2,0.3,0,0.6-0.1,1
			c-0.1,0.4-2.2,3.3-2.2,3.9c0,0.3-0.7,0.7,0,0.8c0.4,0-0.6,1.4,0.1,1.8c0.2,0.1,0.3,0.2,0.4,0.2C445.7,120.9,445.4,121,445.2,121.1
			 M436.2,86.4c0,0.1,0.1,0.2,0.2,0.3c0.4,0.2,0.1,0.8-0.5,0.6c-0.6-0.2-1.6,0.5-1.4,0.7c0.1,0.2,0.5,0.3,1,0
			c0.5-0.3,0.8-0.1,0.9,0.1c0.1,0.2,0.1,0.3,0.1,0.5c0,0.2-0.6,0.2-1.1,0.3c-0.5,0.1-1.1,0.1-1.1-0.2c0-0.3-0.7-0.7-1.1-0.9
			c-0.4-0.2,0-0.7,0.5-0.5c0.5,0.3,0.4-0.2,0.9-0.4c0.3-0.1,0.1-0.2,0-0.3C435.1,86.5,435.7,86.4,436.2,86.4 M439.7,91.5
			c0.4,0,1.2,0.4,1.2,0.6c0,0.2-0.2,0.6-0.3,0.6c-1,0-2-0.8-2.6-1.2c-1-0.7-0.8,0-2.1-0.1c-0.3,0-1.1-0.9-0.8-1.5
			c0.2-0.6,0.6-0.7,0.9-0.7c0.3,0.1,1.1-0.7,1.5-0.1c0.3,0.6,1.1,1.3,1.6,1.4C439.6,90.7,439.3,91.5,439.7,91.5 M440.6,94.4
			c0.2,0.3-1-0.2-1.3-0.4c-0.3-0.3-0.9-0.9-0.6-1.2c0.2-0.4,1.1,0.4,1.5,0.6C441,93.6,440.4,94.2,440.6,94.4 M434.1,90.9
			c0.1-0.1,0.3,0.1,0.5,0.3s0.1,0.6-0.3,0.6C434,91.9,434,91.2,434.1,90.9 M433.6,88.4c0,0,0.5,0.7,0.1,0.6
			C433.4,88.9,433.3,88.6,433.6,88.4 M434.2,90.7c-0.1-0.2-0.3-1-0.2-1.3c0.2-0.4,0.9,0.2,0.6,0.5C434.3,90.3,434.3,90.9,434.2,90.7
			 M430.5,92.4c-0.6,0.1-0.7-0.4-0.8-0.6c-0.1-0.2-0.4,0.6-1,0.2s-0.1-1.2-0.3-1.5c-0.2-0.4,1.1-0.2,1.3-0.3s0.8,0.7,1,0.6
			c0.1,0,1,0.5,0.9,0.2c-0.1-0.3,0-0.7,0.4-0.9c0.7-0.2,0.3,0.8,0.3,1.2c0,0.4,0.8,0.8,1,1c0.3,0.2-0.5,0.6-0.6,0.4
			c-0.2-0.1-0.5,0.1-0.7,0.4c-0.2,0.3-1.1-0.1-1.5-0.1C430,92.9,431,92.3,430.5,92.4 M431.6,87.9c0.5,0.1,0.8,0.2,1-0.2
			c0.2-0.4,0.6,0.6,0.4,0.9c-0.1,0.3-0.5,0.3-0.5,0.1C432.4,88.5,431.1,87.9,431.6,87.9 M433,90.9c-0.2-0.2-0.3-0.4-0.1-0.7
			c0.1-0.2,0-0.4,0.4-0.6c0.2-0.1,0.2,0.2,0.3,0.4c0.1,0.2,0.3,0.5,0.2,0.9C433.6,91.4,433.2,91,433,90.9 M433.6,86.8
			c0,0,0,0.1-0.1,0.1c0,0-0.1,0-0.2,0C433.4,86.8,433.5,86.8,433.6,86.8 M429.9,88.3c0.4-0.1,0.4,0.2,0.8,0.3c0.4,0.1-0.1-1,0.3-0.6
			c0.3,0.4,1.1,0.9,0.8,1.1c-0.3,0.2-1.3,0.8-1.4,0.8s-0.3-0.4-0.6-0.4c-0.3,0-0.7-0.6-0.9-0.5c-0.1,0-0.1-0.1-0.1-0.3
			c0.3-0.2,0.6-0.3,0.9-0.5C429.7,88.3,429.7,88.3,429.9,88.3 M442.5,105.6c-0.3,0.5-1.2-0.1-1.7,0.1c-0.5,0.1-0.8-0.3-1.2-0.2
			c-0.4,0.1,0-0.6,0.7-0.4C440.9,105.3,442.8,105.2,442.5,105.6 M447.7,89.3c-0.1,0.2-0.2,0.3-0.3,0.5c-0.3,0.4-1,0.5-1.1,0.8
			s-0.2,1-1.1,1.2c-0.9,0.2-0.4,1.5-0.4,1.9c0,0.4-0.1,0.9-0.4,0.6c-0.3-0.3-0.4-0.1-1.4-0.9c-1-0.8-0.8-1.4-0.6-1.7
			c0.2-0.3,0.2-1-0.2-0.8c-0.3,0.2-0.6,0-0.6-0.3c0-0.3,0.3-0.6-0.2-0.9c-0.5-0.2-0.5-1.5-1.1-2.5c-0.6-1-0.9-0.1-1.7,0.1
			c-0.8,0.2-1-0.4-0.7-0.7C441.4,86.3,444.8,87.4,447.7,89.3"/>
		<path d="M467.7,161.4V89.5h1.6l47.8,55.1V89.5h7.1v71.8h-1.6L475.1,107v54.4H467.7z"/>
		<path d="M539.7,161.4V89.5h1.6l47.8,55.1V89.5h7.1v71.8h-1.6L547.1,107v54.4H539.7z"/>
		<path d="M611.6,89.5h41.2v7h-34v22.5h33.7v7h-33.7v28.2h33.7v7h-40.9V89.5z"/>
		<path d="M665.2,161.4V89.5h14.9c10.7,0,18.5,0.9,23.4,2.6c7,2.4,12.4,6.7,16.3,12.7c3.9,6,5.9,13.2,5.9,21.5
			c0,7.2-1.6,13.5-4.7,19c-3.1,5.5-7.1,9.5-12.1,12.1c-5,2.6-11.9,3.9-20.9,3.9H665.2z M672.1,154.6h8.3c9.9,0,16.8-0.6,20.7-1.9
			c5.4-1.8,9.7-4.9,12.7-9.5c3.1-4.6,4.6-10.2,4.6-16.8c0-6.9-1.7-12.8-5-17.8c-3.4-4.9-8-8.3-14-10.1c-4.5-1.4-11.9-2-22.2-2h-5.1
			V154.6z"/>
	</g>
</g>
<g id="Layer_2">
</g>
</svg>
